<svg width="127" height="24" viewBox="0 0 127 24" fill="none" xmlns="http://www.w3.org/2000/svg">
<g id="ORCHARD_LOGO_gradient 1" clip-path="url(#clip0_46_501)">
<path id="Vector" d="M9.38022 5.79199C4.20071 5.79199 0 9.90599 0 14.9836C0 19.4621 3.27288 23.1866 7.60613 24.0004V19.5419C5.73009 18.843 4.39443 17.0656 4.39443 14.9786C4.39443 12.2825 6.62733 10.0957 9.38022 10.0957C12.1331 10.0957 14.366 12.2825 14.366 14.9786C14.366 17.0656 13.0303 18.838 11.1543 19.5419V24.0004C15.4876 23.1866 18.7604 19.4621 18.7604 14.9836C18.7604 9.91099 14.5597 5.79698 9.38022 5.79698V5.79199Z" fill="url(#paint0_linear_46_501)"/>
<path id="Vector_2" d="M33.366 6.17551V10.3245H32.0864C30.6131 10.3245 29.4559 10.7089 28.6147 11.4778C27.7736 12.2467 27.3505 13.36 27.3505 14.8279V23.4453H22.5431V6.17551H26.9579V8.23251C28.1916 6.71972 29.8077 5.96582 31.801 5.96582C32.3923 5.96582 32.9174 6.03572 33.366 6.17551Z" fill="url(#paint1_linear_46_501)"/>
<path id="Vector_3" d="M35.0025 14.7938C35.0025 12.2824 35.915 10.1555 37.7452 8.41306C39.5754 6.6706 41.8032 5.79688 44.4388 5.79688C47.9054 5.79688 50.4595 7.21481 52.0959 10.0507L48.7466 12.597C47.5587 10.9244 46.1466 10.0856 44.5102 10.0856C43.1592 10.0856 42.0479 10.535 41.1812 11.4287C40.3146 12.3224 39.8812 13.4457 39.8812 14.7938C39.8812 16.1418 40.3146 17.3001 41.1812 18.1938C42.0479 19.0875 43.1592 19.5368 44.5102 19.5368C46.1466 19.5368 47.5638 18.713 48.7466 17.0604L52.0959 19.5718C51.3108 20.9198 50.2606 21.9733 48.9454 22.7272C47.625 23.4811 46.1262 23.8605 44.4388 23.8605C41.849 23.9055 39.6212 23.0267 37.7452 21.2294C35.8692 19.427 34.9566 17.2801 35.0025 14.7938Z" fill="url(#paint2_linear_46_501)"/>
<path id="Vector_4" d="M71.8658 12.7364V23.4458H67.0941V13.4005C67.0941 12.4019 66.7933 11.5931 66.1867 10.974C65.58 10.3599 64.7898 10.0503 63.8161 10.0503C62.8424 10.0503 62.042 10.3599 61.4099 10.974C60.7778 11.5931 60.4668 12.3969 60.4668 13.4005V23.4458H55.6594V0H60.4668V7.64385C61.726 6.41065 63.342 5.79655 65.3098 5.79655C67.2776 5.79655 68.8937 6.43062 70.0815 7.69877C71.2693 8.96692 71.8607 10.6445 71.8607 12.7414L71.8658 12.7364Z" fill="url(#paint3_linear_46_501)"/>
<path id="Vector_5" d="M91.2788 13.2557V23.5107H86.8639V21.8381C85.4875 23.2311 83.693 23.9301 81.4856 23.9301C79.635 23.9301 78.1566 23.4508 77.0504 22.4972C75.9441 21.5436 75.3936 20.3004 75.3936 18.7676C75.3936 17.2349 75.9951 15.9817 77.1931 15.088C78.3911 14.1943 80.0123 13.7449 82.0566 13.7449H86.4714V12.9761C86.4714 11.9975 86.191 11.2486 85.6353 10.7243C85.0745 10.2001 84.264 9.94049 83.1934 9.94049C82.3166 9.94049 81.5213 10.1252 80.8076 10.4997C80.0939 10.8741 79.3343 11.4782 78.5288 12.312L76.0359 9.41625C78.0802 7.04471 80.6393 5.85645 83.7287 5.85645C86.0534 5.85645 87.8937 6.50051 89.2498 7.79362C90.6058 9.08673 91.2788 10.9041 91.2788 13.2507V13.2557ZM86.4714 17.0551V16.8454H82.6938C81.0574 16.8454 80.2366 17.4246 80.2366 18.5879C80.2366 19.167 80.466 19.6264 80.9299 19.9659C81.3938 20.3054 82.0056 20.4701 82.7652 20.4701C83.8358 20.4701 84.7177 20.1506 85.4161 19.5115C86.1145 18.8725 86.4663 18.0537 86.4663 17.0501L86.4714 17.0551Z" fill="url(#paint4_linear_46_501)"/>
<path id="Vector_6" d="M106.736 6.17551V10.3245H105.456C103.983 10.3245 102.826 10.7089 101.984 11.4778C101.143 12.2467 100.72 13.36 100.72 14.8279V23.4453H95.9127V6.17551H100.328V8.23251C101.561 6.71972 103.177 5.96582 105.171 5.96582C105.762 5.96582 106.287 6.03572 106.736 6.17551Z" fill="url(#paint5_linear_46_501)"/>
<path id="Vector_7" d="M122.193 0H127V23.4458H122.585V21.3189C121.372 23.0164 119.486 23.8652 116.921 23.8652C114.357 23.8652 112.41 23.0114 110.794 21.2989C109.178 19.5914 108.372 17.4346 108.372 14.8284C108.372 12.2222 109.178 10.0653 110.794 8.35781C112.41 6.6503 114.449 5.79155 116.921 5.79155C119.154 5.79155 120.908 6.47556 122.193 7.84856V0ZM121 18.3133C121.841 17.4745 122.264 16.3112 122.264 14.8234C122.264 13.3356 121.836 12.1673 120.984 11.3185C120.128 10.4697 119.073 10.0454 117.813 10.0454C116.554 10.0454 115.423 10.4897 114.556 11.3684C113.689 12.2521 113.256 13.3905 113.256 14.7884C113.256 16.1864 113.684 17.3597 114.535 18.2434C115.392 19.1271 116.483 19.5715 117.813 19.5715C119.144 19.5715 120.159 19.1521 121 18.3133Z" fill="url(#paint6_linear_46_501)"/>
</g>
<defs>
<linearGradient id="paint0_linear_46_501" x1="9.38022" y1="5.79199" x2="9.38022" y2="24.0004" gradientUnits="userSpaceOnUse">
<stop stop-color="#EF4136"/>
<stop offset="0.21" stop-color="#D73644"/>
<stop offset="0.52" stop-color="#BD2A54"/>
<stop offset="0.79" stop-color="#AD225E"/>
<stop offset="1" stop-color="#A82062"/>
</linearGradient>
<linearGradient id="paint1_linear_46_501" x1="27.952" y1="5.96582" x2="27.952" y2="23.4453" gradientUnits="userSpaceOnUse">
<stop stop-color="#EF4136"/>
<stop offset="0.21" stop-color="#D73644"/>
<stop offset="0.52" stop-color="#BD2A54"/>
<stop offset="0.79" stop-color="#AD225E"/>
<stop offset="1" stop-color="#A82062"/>
</linearGradient>
<linearGradient id="paint2_linear_46_501" x1="43.5518" y1="5.79188" x2="43.5518" y2="23.8655" gradientUnits="userSpaceOnUse">
<stop stop-color="#EF4136"/>
<stop offset="0.21" stop-color="#D73644"/>
<stop offset="0.52" stop-color="#BD2A54"/>
<stop offset="0.79" stop-color="#AD225E"/>
<stop offset="1" stop-color="#A82062"/>
</linearGradient>
<linearGradient id="paint3_linear_46_501" x1="63.7652" y1="0" x2="63.7652" y2="23.4458" gradientUnits="userSpaceOnUse">
<stop stop-color="#EF4136"/>
<stop offset="0.21" stop-color="#D73644"/>
<stop offset="0.52" stop-color="#BD2A54"/>
<stop offset="0.79" stop-color="#AD225E"/>
<stop offset="1" stop-color="#A82062"/>
</linearGradient>
<linearGradient id="paint4_linear_46_501" x1="83.3362" y1="5.86144" x2="83.3362" y2="23.9301" gradientUnits="userSpaceOnUse">
<stop stop-color="#EF4136"/>
<stop offset="0.21" stop-color="#D73644"/>
<stop offset="0.52" stop-color="#BD2A54"/>
<stop offset="0.79" stop-color="#AD225E"/>
<stop offset="1" stop-color="#A82062"/>
</linearGradient>
<linearGradient id="paint5_linear_46_501" x1="101.322" y1="5.96582" x2="101.322" y2="23.4453" gradientUnits="userSpaceOnUse">
<stop stop-color="#EF4136"/>
<stop offset="0.21" stop-color="#D73644"/>
<stop offset="0.52" stop-color="#BD2A54"/>
<stop offset="0.79" stop-color="#AD225E"/>
<stop offset="1" stop-color="#A82062"/>
</linearGradient>
<linearGradient id="paint6_linear_46_501" x1="117.686" y1="0" x2="117.686" y2="23.8602" gradientUnits="userSpaceOnUse">
<stop stop-color="#EF4136"/>
<stop offset="0.21" stop-color="#D73644"/>
<stop offset="0.52" stop-color="#BD2A54"/>
<stop offset="0.79" stop-color="#AD225E"/>
<stop offset="1" stop-color="#A82062"/>
</linearGradient>
<clipPath id="clip0_46_501">
<rect width="127" height="24" fill="white"/>
</clipPath>
</defs>
</svg>
